<?xml version="1.0" encoding="UTF-8" standalone="no"?>
<!DOCTYPE svg PUBLIC "-//W3C//DTD SVG 1.1//EN"
 "http://www.w3.org/Graphics/SVG/1.1/DTD/svg11.dtd">
<!-- Generated by graphviz version 14.1.1 (20251213.1925)
 -->
<!-- Title: G Pages: 1 -->
<svg width="917pt" height="521pt"
 viewBox="0.00 0.00 917.00 521.00" xmlns="http://www.w3.org/2000/svg" xmlns:xlink="http://www.w3.org/1999/xlink">
<g id="graph0" class="graph" transform="scale(1 1) rotate(0) translate(18 503.35)">
<title>G</title>
<polygon fill="white" stroke="none" points="-18,18 -18,-503.35 899.04,-503.35 899.04,18 -18,18"/>
<g id="clust4" class="cluster">
<title>cluster_aux</title>
<path fill="none" stroke="black" d="M432.33,-280.2C432.33,-280.2 622.33,-280.2 622.33,-280.2 628.33,-280.2 634.33,-286.2 634.33,-292.2 634.33,-292.2 634.33,-361.35 634.33,-361.35 634.33,-367.35 628.33,-373.35 622.33,-373.35 622.33,-373.35 432.33,-373.35 432.33,-373.35 426.33,-373.35 420.33,-367.35 420.33,-361.35 420.33,-361.35 420.33,-292.2 420.33,-292.2 420.33,-286.2 426.33,-280.2 432.33,-280.2"/>
<text xml:space="preserve" text-anchor="middle" x="527.33" y="-357.95" font-family="Helvetica,sans-Serif" font-size="12.00">Auxiliary Clinical Signal</text>
</g>
<!-- T -->
<g id="node1" class="node">
<title>T</title>
<path fill="none" stroke="black" d="M130.41,-485.35C130.41,-485.35 68.25,-485.35 68.25,-485.35 62.25,-485.35 56.25,-479.35 56.25,-473.35 56.25,-473.35 56.25,-461.35 56.25,-461.35 56.25,-455.35 62.25,-449.35 68.25,-449.35 68.25,-449.35 130.41,-449.35 130.41,-449.35 136.41,-449.35 142.41,-455.35 142.41,-461.35 142.41,-461.35 142.41,-473.35 142.41,-473.35 142.41,-479.35 136.41,-485.35 130.41,-485.35"/>
<text xml:space="preserve" text-anchor="middle" x="99.33" y="-463.65" font-family="Helvetica,sans-Serif" font-size="11.00">Text message</text>
</g>
<!-- TP -->
<g id="node4" class="node">
<title>TP</title>
<path fill="none" stroke="black" d="M163.41,-417.35C163.41,-417.35 35.25,-417.35 35.25,-417.35 29.25,-417.35 23.25,-411.35 23.25,-405.35 23.25,-405.35 23.25,-393.35 23.25,-393.35 23.25,-387.35 29.25,-381.35 35.25,-381.35 35.25,-381.35 163.41,-381.35 163.41,-381.35 169.41,-381.35 175.41,-387.35 175.41,-393.35 175.41,-393.35 175.41,-405.35 175.41,-405.35 175.41,-411.35 169.41,-417.35 163.41,-417.35"/>
<text xml:space="preserve" text-anchor="middle" x="99.33" y="-395.65" font-family="Helvetica,sans-Serif" font-size="11.00">Text cleaning + tokenization</text>
</g>
<!-- T&#45;&gt;TP -->
<g id="edge1" class="edge">
<title>T&#45;&gt;TP</title>
<path fill="none" stroke="black" d="M99.33,-449.13C99.33,-449.13 99.33,-426.14 99.33,-426.14"/>
<polygon fill="black" stroke="black" points="101.78,-426.14 99.33,-419.14 96.88,-426.14 101.78,-426.14"/>
</g>
<!-- A -->
<g id="node2" class="node">
<title>A</title>
<path fill="none" stroke="black" d="M465.66,-485.35C465.66,-485.35 375,-485.35 375,-485.35 369,-485.35 363,-479.35 363,-473.35 363,-473.35 363,-461.35 363,-461.35 363,-455.35 369,-449.35 375,-449.35 375,-449.35 465.66,-449.35 465.66,-449.35 471.66,-449.35 477.66,-455.35 477.66,-461.35 477.66,-461.35 477.66,-473.35 477.66,-473.35 477.66,-479.35 471.66,-485.35 465.66,-485.35"/>
<text xml:space="preserve" text-anchor="middle" x="420.33" y="-463.65" font-family="Helvetica,sans-Serif" font-size="11.00">Audio clip (optional)</text>
</g>
<!-- AP -->
<g id="node5" class="node">
<title>AP</title>
<path fill="none" stroke="black" d="M490.78,-417.35C490.78,-417.35 349.88,-417.35 349.88,-417.35 343.88,-417.35 337.88,-411.35 337.88,-405.35 337.88,-405.35 337.88,-393.35 337.88,-393.35 337.88,-387.35 343.88,-381.35 349.88,-381.35 349.88,-381.35 490.78,-381.35 490.78,-381.35 496.78,-381.35 502.78,-387.35 502.78,-393.35 502.78,-393.35 502.78,-405.35 502.78,-405.35 502.78,-411.35 496.78,-417.35 490.78,-417.35"/>
<text xml:space="preserve" text-anchor="middle" x="420.33" y="-395.65" font-family="Helvetica,sans-Serif" font-size="11.00">Resample + feature extraction</text>
</g>
<!-- A&#45;&gt;AP -->
<g id="edge4" class="edge">
<title>A&#45;&gt;AP</title>
<path fill="none" stroke="black" d="M420.33,-449.13C420.33,-449.13 420.33,-426.14 420.33,-426.14"/>
<polygon fill="black" stroke="black" points="422.78,-426.14 420.33,-419.14 417.88,-426.14 422.78,-426.14"/>
</g>
<!-- V -->
<g id="node3" class="node">
<title>V</title>
<path fill="none" stroke="black" d="M851.41,-485.35C851.41,-485.35 681.25,-485.35 681.25,-485.35 675.25,-485.35 669.25,-479.35 669.25,-473.35 669.25,-473.35 669.25,-461.35 669.25,-461.35 669.25,-455.35 675.25,-449.35 681.25,-449.35 681.25,-449.35 851.41,-449.35 851.41,-449.35 857.41,-449.35 863.41,-455.35 863.41,-461.35 863.41,-461.35 863.41,-473.35 863.41,-473.35 863.41,-479.35 857.41,-485.35 851.41,-485.35"/>
<text xml:space="preserve" text-anchor="middle" x="766.33" y="-463.65" font-family="Helvetica,sans-Serif" font-size="11.00">Image / webcam snapshot (optional)</text>
</g>
<!-- VP -->
<g id="node6" class="node">
<title>VP</title>
<path fill="none" stroke="black" d="M819.16,-417.35C819.16,-417.35 713.5,-417.35 713.5,-417.35 707.5,-417.35 701.5,-411.35 701.5,-405.35 701.5,-405.35 701.5,-393.35 701.5,-393.35 701.5,-387.35 707.5,-381.35 713.5,-381.35 713.5,-381.35 819.16,-381.35 819.16,-381.35 825.16,-381.35 831.16,-387.35 831.16,-393.35 831.16,-393.35 831.16,-405.35 831.16,-405.35 831.16,-411.35 825.16,-417.35 819.16,-417.35"/>
<text xml:space="preserve" text-anchor="middle" x="766.33" y="-395.65" font-family="Helvetica,sans-Serif" font-size="11.00">Resize + normalization</text>
</g>
<!-- V&#45;&gt;VP -->
<g id="edge7" class="edge">
<title>V&#45;&gt;VP</title>
<path fill="none" stroke="black" d="M766.33,-449.13C766.33,-449.13 766.33,-426.14 766.33,-426.14"/>
<polygon fill="black" stroke="black" points="768.78,-426.14 766.33,-419.14 763.88,-426.14 768.78,-426.14"/>
</g>
<!-- TE -->
<g id="node7" class="node">
<title>TE</title>
<path fill="none" stroke="black" d="M186.66,-336.35C186.66,-336.35 12,-336.35 12,-336.35 6,-336.35 0,-330.35 0,-324.35 0,-324.35 0,-306.95 0,-306.95 0,-300.95 6,-294.95 12,-294.95 12,-294.95 186.66,-294.95 186.66,-294.95 192.66,-294.95 198.66,-300.95 198.66,-306.95 198.66,-306.95 198.66,-324.35 198.66,-324.35 198.66,-330.35 192.66,-336.35 186.66,-336.35"/>
<text xml:space="preserve" text-anchor="middle" x="99.33" y="-318.7" font-family="Helvetica,sans-Serif" font-size="11.00">Text encoder: DistilBERT (fine&#45;tuned)</text>
<text xml:space="preserve" text-anchor="middle" x="99.33" y="-305.2" font-family="Helvetica,sans-Serif" font-size="11.00">Output: text embedding</text>
</g>
<!-- TP&#45;&gt;TE -->
<g id="edge2" class="edge">
<title>TP&#45;&gt;TE</title>
<path fill="none" stroke="black" d="M99.33,-381.19C99.33,-381.19 99.33,-345.24 99.33,-345.24"/>
<polygon fill="black" stroke="black" points="101.78,-345.24 99.33,-338.24 96.88,-345.24 101.78,-345.24"/>
</g>
<!-- AE -->
<g id="node8" class="node">
<title>AE</title>
<path fill="none" stroke="black" d="M390.91,-336.35C390.91,-336.35 235.75,-336.35 235.75,-336.35 229.75,-336.35 223.75,-330.35 223.75,-324.35 223.75,-324.35 223.75,-306.95 223.75,-306.95 223.75,-300.95 229.75,-294.95 235.75,-294.95 235.75,-294.95 390.91,-294.95 390.91,-294.95 396.91,-294.95 402.91,-300.95 402.91,-306.95 402.91,-306.95 402.91,-324.35 402.91,-324.35 402.91,-330.35 396.91,-336.35 390.91,-336.35"/>
<text xml:space="preserve" text-anchor="middle" x="313.33" y="-318.7" font-family="Helvetica,sans-Serif" font-size="11.00">Audio emotion encoder (optional)</text>
<text xml:space="preserve" text-anchor="middle" x="313.33" y="-305.2" font-family="Helvetica,sans-Serif" font-size="11.00">Output: audio embedding</text>
</g>
<!-- AP&#45;&gt;AE -->
<g id="edge5" class="edge">
<title>AP&#45;&gt;AE</title>
<path fill="none" stroke="black" d="M370.39,-381.19C370.39,-381.19 370.39,-345.24 370.39,-345.24"/>
<polygon fill="black" stroke="black" points="372.84,-345.24 370.39,-338.24 367.94,-345.24 372.84,-345.24"/>
</g>
<!-- DR -->
<g id="node10" class="node">
<title>DR</title>
<path fill="none" stroke="black" d="M614.29,-343.1C614.29,-343.1 440.38,-343.1 440.38,-343.1 434.38,-343.1 428.38,-337.1 428.38,-331.1 428.38,-331.1 428.38,-300.2 428.38,-300.2 428.38,-294.2 434.38,-288.2 440.38,-288.2 440.38,-288.2 614.29,-288.2 614.29,-288.2 620.29,-288.2 626.29,-294.2 626.29,-300.2 626.29,-300.2 626.29,-331.1 626.29,-331.1 626.29,-337.1 620.29,-343.1 614.29,-343.1"/>
<text xml:space="preserve" text-anchor="middle" x="527.33" y="-325.45" font-family="Helvetica,sans-Serif" font-size="11.00">Depression risk model (optional)</text>
<text xml:space="preserve" text-anchor="middle" x="527.33" y="-311.95" font-family="Helvetica,sans-Serif" font-size="11.00">CNN&#45;BiLSTM trained on DAIC&#45;WOZ</text>
<text xml:space="preserve" text-anchor="middle" x="527.33" y="-298.45" font-family="Helvetica,sans-Serif" font-size="11.00">Output: risk score</text>
</g>
<!-- AP&#45;&gt;DR -->
<g id="edge10" class="edge">
<title>AP&#45;&gt;DR</title>
<path fill="none" stroke="black" d="M465.58,-381.19C465.58,-381.19 465.58,-351.84 465.58,-351.84"/>
<polygon fill="black" stroke="black" points="468.03,-351.84 465.58,-344.84 463.13,-351.84 468.03,-351.84"/>
</g>
<!-- VE -->
<g id="node9" class="node">
<title>VE</title>
<path fill="none" stroke="black" d="M869.04,-336.35C869.04,-336.35 663.62,-336.35 663.62,-336.35 657.62,-336.35 651.62,-330.35 651.62,-324.35 651.62,-324.35 651.62,-306.95 651.62,-306.95 651.62,-300.95 657.62,-294.95 663.62,-294.95 663.62,-294.95 869.04,-294.95 869.04,-294.95 875.04,-294.95 881.04,-300.95 881.04,-306.95 881.04,-306.95 881.04,-324.35 881.04,-324.35 881.04,-330.35 875.04,-336.35 869.04,-336.35"/>
<text xml:space="preserve" text-anchor="middle" x="766.33" y="-318.7" font-family="Helvetica,sans-Serif" font-size="11.00">Visual encoder: ResNet (pretrained, frozen)</text>
<text xml:space="preserve" text-anchor="middle" x="766.33" y="-305.2" font-family="Helvetica,sans-Serif" font-size="11.00">Output: visual embedding</text>
</g>
<!-- VP&#45;&gt;VE -->
<g id="edge8" class="edge">
<title>VP&#45;&gt;VE</title>
<path fill="none" stroke="black" d="M766.33,-381.19C766.33,-381.19 766.33,-345.24 766.33,-345.24"/>
<polygon fill="black" stroke="black" points="768.78,-345.24 766.33,-338.24 763.88,-345.24 768.78,-345.24"/>
</g>
<!-- F1 -->
<g id="node11" class="node">
<title>F1</title>
<path fill="none" stroke="black" d="M427.91,-256.2C427.91,-256.2 296.75,-256.2 296.75,-256.2 290.75,-256.2 284.75,-250.2 284.75,-244.2 284.75,-244.2 284.75,-226.8 284.75,-226.8 284.75,-220.8 290.75,-214.8 296.75,-214.8 296.75,-214.8 427.91,-214.8 427.91,-214.8 433.91,-214.8 439.91,-220.8 439.91,-226.8 439.91,-226.8 439.91,-244.2 439.91,-244.2 439.91,-250.2 433.91,-256.2 427.91,-256.2"/>
<text xml:space="preserve" text-anchor="middle" x="362.33" y="-238.55" font-family="Helvetica,sans-Serif" font-size="11.00">Concatenate / gating</text>
<text xml:space="preserve" text-anchor="middle" x="362.33" y="-225.05" font-family="Helvetica,sans-Serif" font-size="11.00">(handles missing modalities)</text>
</g>
<!-- TE&#45;&gt;F1 -->
<g id="edge3" class="edge">
<title>TE&#45;&gt;F1</title>
<path fill="none" stroke="black" d="M99.33,-294.72C99.33,-271.12 99.33,-236 99.33,-236 99.33,-236 275.98,-236 275.98,-236"/>
<polygon fill="black" stroke="black" points="275.98,-238.45 282.98,-236 275.98,-233.55 275.98,-238.45"/>
</g>
<!-- AE&#45;&gt;F1 -->
<g id="edge6" class="edge">
<title>AE&#45;&gt;F1</title>
<path fill="none" stroke="black" d="M343.83,-294.59C343.83,-294.59 343.83,-265.21 343.83,-265.21"/>
<polygon fill="black" stroke="black" points="346.28,-265.21 343.83,-258.21 341.38,-265.21 346.28,-265.21"/>
</g>
<!-- VE&#45;&gt;F1 -->
<g id="edge9" class="edge">
<title>VE&#45;&gt;F1</title>
<path fill="none" stroke="black" d="M665.64,-294.59C665.64,-283.43 665.64,-272 665.64,-272 665.64,-272 434.14,-272 434.14,-272 434.14,-272 434.14,-264.82 434.14,-264.82"/>
<polygon fill="black" stroke="black" points="436.59,-264.82 434.14,-257.82 431.69,-264.82 436.59,-264.82"/>
</g>
<!-- CS -->
<g id="node14" class="node">
<title>CS</title>
<path fill="none" stroke="black" d="M669.54,-109.4C669.54,-109.4 569.12,-109.4 569.12,-109.4 563.12,-109.4 557.12,-103.4 557.12,-97.4 557.12,-97.4 557.12,-85.4 557.12,-85.4 557.12,-79.4 563.12,-73.4 569.12,-73.4 569.12,-73.4 669.54,-73.4 669.54,-73.4 675.54,-73.4 681.54,-79.4 681.54,-85.4 681.54,-85.4 681.54,-97.4 681.54,-97.4 681.54,-103.4 675.54,-109.4 669.54,-109.4"/>
<text xml:space="preserve" text-anchor="middle" x="619.33" y="-87.7" font-family="Helvetica,sans-Serif" font-size="11.00">CBT strategy selector</text>
</g>
<!-- DR&#45;&gt;CS -->
<g id="edge11" class="edge">
<title>DR&#45;&gt;CS</title>
<path fill="none" stroke="black" d="M490.08,-288.1C490.08,-228.12 490.08,-91 490.08,-91 490.08,-91 548.46,-91 548.46,-91"/>
<polygon fill="black" stroke="black" points="548.46,-93.45 555.46,-91 548.46,-88.55 548.46,-93.45"/>
</g>
<!-- FH -->
<g id="node12" class="node">
<title>FH</title>
<path fill="none" stroke="black" d="M667.66,-256.2C667.66,-256.2 559,-256.2 559,-256.2 553,-256.2 547,-250.2 547,-244.2 547,-244.2 547,-226.8 547,-226.8 547,-220.8 553,-214.8 559,-214.8 559,-214.8 667.66,-214.8 667.66,-214.8 673.66,-214.8 679.66,-220.8 679.66,-226.8 679.66,-226.8 679.66,-244.2 679.66,-244.2 679.66,-250.2 673.66,-256.2 667.66,-256.2"/>
<text xml:space="preserve" text-anchor="middle" x="613.33" y="-238.55" font-family="Helvetica,sans-Serif" font-size="11.00">Late fusion head (MLP)</text>
<text xml:space="preserve" text-anchor="middle" x="613.33" y="-225.05" font-family="Helvetica,sans-Serif" font-size="11.00">trained on IEMOCAP</text>
</g>
<!-- F1&#45;&gt;FH -->
<g id="edge12" class="edge">
<title>F1&#45;&gt;FH</title>
<path fill="none" stroke="black" d="M440.37,-236C440.37,-236 538.25,-236 538.25,-236"/>
<polygon fill="black" stroke="black" points="538.25,-238.45 545.25,-236 538.25,-233.55 538.25,-238.45"/>
</g>
<!-- EO -->
<g id="node13" class="node">
<title>EO</title>
<path fill="none" stroke="black" d="M686.41,-182.8C686.41,-182.8 552.25,-182.8 552.25,-182.8 546.25,-182.8 540.25,-176.8 540.25,-170.8 540.25,-170.8 540.25,-153.4 540.25,-153.4 540.25,-147.4 546.25,-141.4 552.25,-141.4 552.25,-141.4 686.41,-141.4 686.41,-141.4 692.41,-141.4 698.41,-147.4 698.41,-153.4 698.41,-153.4 698.41,-170.8 698.41,-170.8 698.41,-176.8 692.41,-182.8 686.41,-182.8"/>
<text xml:space="preserve" text-anchor="middle" x="619.33" y="-165.15" font-family="Helvetica,sans-Serif" font-size="11.00">Emotion distribution</text>
<text xml:space="preserve" text-anchor="middle" x="619.33" y="-151.65" font-family="Helvetica,sans-Serif" font-size="11.00">Top&#45;2 emotions + confidence</text>
</g>
<!-- FH&#45;&gt;EO -->
<g id="edge13" class="edge">
<title>FH&#45;&gt;EO</title>
<path fill="none" stroke="black" d="M613.33,-214.66C613.33,-214.66 613.33,-191.76 613.33,-191.76"/>
<polygon fill="black" stroke="black" points="615.78,-191.76 613.33,-184.76 610.88,-191.76 615.78,-191.76"/>
</g>
<!-- EO&#45;&gt;CS -->
<g id="edge14" class="edge">
<title>EO&#45;&gt;CS</title>
<path fill="none" stroke="black" d="M619.33,-141.27C619.33,-141.27 619.33,-117.96 619.33,-117.96"/>
<polygon fill="black" stroke="black" points="621.78,-117.96 619.33,-110.96 616.88,-117.96 621.78,-117.96"/>
</g>
<!-- RG -->
<g id="node15" class="node">
<title>RG</title>
<path fill="none" stroke="black" d="M792.91,-41.4C792.91,-41.4 619.75,-41.4 619.75,-41.4 613.75,-41.4 607.75,-35.4 607.75,-29.4 607.75,-29.4 607.75,-12 607.75,-12 607.75,-6 613.75,0 619.75,0 619.75,0 792.91,0 792.91,0 798.91,0 804.91,-6 804.91,-12 804.91,-12 804.91,-29.4 804.91,-29.4 804.91,-35.4 798.91,-41.4 792.91,-41.4"/>
<text xml:space="preserve" text-anchor="middle" x="706.33" y="-23.75" font-family="Helvetica,sans-Serif" font-size="11.00">CBT response generator</text>
<text xml:space="preserve" text-anchor="middle" x="706.33" y="-10.25" font-family="Helvetica,sans-Serif" font-size="11.00">rule&#45;based / simulated / external LLM</text>
</g>
<!-- CS&#45;&gt;RG -->
<g id="edge15" class="edge">
<title>CS&#45;&gt;RG</title>
<path fill="none" stroke="black" d="M644.64,-73.19C644.64,-73.19 644.64,-50.37 644.64,-50.37"/>
<polygon fill="black" stroke="black" points="647.09,-50.37 644.64,-43.37 642.19,-50.37 647.09,-50.37"/>
</g>
<!-- R -->
<g id="node16" class="node">
<title>R</title>
<path fill="none" stroke="black" d="M852.79,-182.8C852.79,-182.8 735.88,-182.8 735.88,-182.8 729.88,-182.8 723.88,-176.8 723.88,-170.8 723.88,-170.8 723.88,-153.4 723.88,-153.4 723.88,-147.4 729.88,-141.4 735.88,-141.4 735.88,-141.4 852.79,-141.4 852.79,-141.4 858.79,-141.4 864.79,-147.4 864.79,-153.4 864.79,-153.4 864.79,-170.8 864.79,-170.8 864.79,-176.8 858.79,-182.8 852.79,-182.8"/>
<text xml:space="preserve" text-anchor="middle" x="794.33" y="-165.15" font-family="Helvetica,sans-Serif" font-size="11.00">Final CBT&#45;style response</text>
<text xml:space="preserve" text-anchor="middle" x="794.33" y="-151.65" font-family="Helvetica,sans-Serif" font-size="11.00">(supportive, non&#45;clinical)</text>
</g>
<!-- RG&#45;&gt;R -->
<g id="edge16" class="edge">
<title>RG&#45;&gt;R</title>
<path fill="none" stroke="black" d="M764.39,-41.87C764.39,-41.87 764.39,-132.73 764.39,-132.73"/>
<polygon fill="black" stroke="black" points="761.94,-132.73 764.39,-139.73 766.84,-132.73 761.94,-132.73"/>
</g>
</g>
</svg>
